<svg width="20" height="20" viewBox="0 0 20 20" fill="none" xmlns="http://www.w3.org/2000/svg">
<path fill-rule="evenodd" clip-rule="evenodd" d="M1.59961 10.0981C1.59961 6.50301 1.59961 4.70544 2.4563 3.4107C2.83886 2.83253 3.334 2.33739 3.91216 1.95484C5.2069 1.09814 7.00447 1.09814 10.5996 1.09814C14.1947 1.09814 15.9923 1.09814 17.2871 1.95484C17.8652 2.33739 18.3604 2.83253 18.7429 3.4107C19.5996 4.70544 19.5996 6.50301 19.5996 10.0981C19.5996 13.6933 19.5996 15.4909 18.7429 16.7856C18.3604 17.3638 17.8652 17.8589 17.2871 18.2415C15.9923 19.0981 14.1947 19.0981 10.5996 19.0981C7.00447 19.0981 5.2069 19.0981 3.91216 18.2415C3.334 17.8589 2.83886 17.3638 2.4563 16.7856C1.59961 15.4909 1.59961 13.6933 1.59961 10.0981ZM15.2592 10.0982C15.2592 12.6715 13.1731 14.7576 10.5998 14.7576C8.02649 14.7576 5.9404 12.6715 5.9404 10.0982C5.9404 7.52487 8.02649 5.43878 10.5998 5.43878C13.1731 5.43878 15.2592 7.52487 15.2592 10.0982ZM10.5998 13.1812C12.3025 13.1812 13.6828 11.8009 13.6828 10.0982C13.6828 8.39549 12.3025 7.01519 10.5998 7.01519C8.89712 7.01519 7.51681 8.39549 7.51681 10.0982C7.51681 11.8009 8.89712 13.1812 10.5998 13.1812ZM15.4432 6.29951C16.0479 6.29951 16.5381 5.80934 16.5381 5.20469C16.5381 4.60003 16.0479 4.10986 15.4432 4.10986C14.8386 4.10986 14.3484 4.60003 14.3484 5.20469C14.3484 5.80934 14.8386 6.29951 15.4432 6.29951Z" fill="#064E3B"/>
</svg>
