<svg width="20" height="16" viewBox="0 0 20 16" fill="none" xmlns="http://www.w3.org/2000/svg">
<path d="M13.6267 0.799628V0.796387H14.4707L14.779 0.857979C14.9846 0.897965 15.1713 0.950367 15.339 1.0152C15.5067 1.08003 15.6691 1.15568 15.8259 1.24212C15.9828 1.32856 16.1251 1.41663 16.2528 1.50631C16.3794 1.59493 16.493 1.68894 16.5937 1.78834C16.6932 1.88883 16.8485 1.91477 17.0595 1.86614C17.2705 1.81752 17.4977 1.74998 17.7412 1.66354C17.9846 1.5771 18.2254 1.47985 18.4635 1.37179C18.7015 1.26372 18.8465 1.19511 18.8985 1.16594C18.9493 1.13569 18.9764 1.11949 18.9796 1.11731L18.9828 1.11245L18.9991 1.10435L19.0153 1.09624L19.0315 1.08814L19.0478 1.08003L19.051 1.07517L19.0559 1.07193L19.0608 1.06869L19.064 1.06383L19.0802 1.05896L19.0965 1.05572L19.0932 1.08003L19.0883 1.10435L19.0802 1.12866L19.0721 1.15297L19.064 1.16918L19.0559 1.18539L19.0478 1.2097C19.0424 1.22591 19.037 1.24752 19.0315 1.27453C19.0261 1.30155 18.9747 1.4096 18.8773 1.5987C18.78 1.78781 18.6582 1.9796 18.5121 2.1741C18.3661 2.3686 18.2351 2.51555 18.1194 2.61497C18.0025 2.71546 17.9251 2.78569 17.8873 2.82568C17.8494 2.86674 17.8034 2.90455 17.7493 2.93914L17.6681 2.99263L17.6519 3.00073L17.6357 3.00883L17.6324 3.0137L17.6276 3.01694L17.6227 3.02018L17.6194 3.02504L17.6032 3.03315L17.587 3.04125L17.5838 3.04611L17.5789 3.04936L17.574 3.0526L17.5708 3.05746L17.5675 3.06232L17.5626 3.06556L17.5578 3.06881L17.5545 3.07367H17.6357L18.0901 2.97642C18.3931 2.91158 18.6826 2.83325 18.9585 2.7414L19.3967 2.59552L19.4454 2.57931L19.4698 2.57121L19.486 2.5631L19.5022 2.555L19.5185 2.54689L19.5347 2.53879L19.5671 2.53393L19.5996 2.53069V2.5631L19.5915 2.56634L19.5834 2.57121L19.5801 2.57607L19.5753 2.57931L19.5704 2.58255L19.5671 2.58742L19.5639 2.59228L19.559 2.59552L19.5542 2.59876L19.5509 2.60362L19.5477 2.60849L19.5428 2.61173L19.5347 2.62794L19.5266 2.64415L19.5217 2.64739C19.5195 2.65063 19.4508 2.74247 19.3156 2.92293C19.1803 3.10446 19.1073 3.1963 19.0965 3.19847C19.0856 3.20171 19.0705 3.21792 19.051 3.2471C19.0326 3.27734 18.9179 3.39784 18.7069 3.60855C18.4959 3.81925 18.2893 4.00672 18.0869 4.17098C17.8835 4.3363 17.7807 4.53944 17.7785 4.78041C17.7753 5.0203 17.7628 5.29153 17.7412 5.59408C17.7195 5.89664 17.679 6.2235 17.6194 6.57468C17.5599 6.92587 17.468 7.32298 17.3435 7.766C17.2191 8.20903 17.0676 8.64126 16.8891 9.06268C16.7105 9.48409 16.5239 9.86228 16.3291 10.1973C16.1343 10.5322 15.9558 10.8159 15.7935 11.0482C15.6312 11.2805 15.4662 11.4993 15.2984 11.7046C15.1307 11.91 14.9187 12.1412 14.6622 12.3984C14.4047 12.6545 14.264 12.7949 14.2402 12.8198C14.2153 12.8436 14.1093 12.9322 13.9221 13.0856C13.736 13.2401 13.5358 13.3946 13.3215 13.5492C13.1084 13.7026 12.9125 13.8307 12.734 13.9333C12.5554 14.0359 12.3401 14.1532 12.088 14.285C11.837 14.4179 11.5653 14.5411 11.2732 14.6546C10.981 14.768 10.6726 14.8734 10.348 14.9706C10.0234 15.0679 9.70962 15.1435 9.40664 15.1976C9.10368 15.2516 8.76012 15.2975 8.37598 15.3353L7.79979 15.3921V15.4002H6.74479V15.3921L6.60682 15.384C6.51486 15.3786 6.43911 15.3731 6.37959 15.3677C6.32009 15.3623 6.09555 15.3326 5.70601 15.2786C5.31647 15.2246 5.0108 15.1705 4.78897 15.1165C4.56716 15.0625 4.23712 14.9598 3.79889 14.8086C3.36066 14.6573 2.98572 14.5044 2.67409 14.3499C2.36355 14.1964 2.16878 14.0992 2.08978 14.0581C2.01187 14.0181 1.92423 13.9684 1.82684 13.909L1.68076 13.8198L1.67753 13.815L1.67265 13.8117L1.66778 13.8085L1.66453 13.8036L1.6483 13.7955L1.63207 13.7874L1.62884 13.7826L1.62396 13.7793L1.61909 13.7761L1.61584 13.7712L1.61261 13.7664L1.60772 13.7631H1.59961V13.7307L1.61584 13.7339L1.63207 13.7388L1.70511 13.7469C1.7538 13.7523 1.88636 13.7604 2.10277 13.7712C2.31919 13.782 2.54911 13.782 2.79258 13.7712C3.03604 13.7604 3.28492 13.7361 3.53919 13.6983C3.79348 13.6605 4.09375 13.5956 4.44001 13.5038C4.78627 13.4119 5.1044 13.3028 5.3944 13.1764C5.6833 13.0489 5.88888 12.9538 6.01117 12.8911C6.13235 12.8295 6.31738 12.715 6.56625 12.5475L6.93956 12.2963L6.9428 12.2914L6.94767 12.2881L6.95256 12.2849L6.95579 12.28L6.95903 12.2752L6.9639 12.2719L6.96879 12.2687L6.97202 12.2638L6.98825 12.259L7.00448 12.2557L7.00772 12.2395L7.01259 12.2233L7.01748 12.2201L7.02071 12.2152L6.89086 12.2071C6.8043 12.2017 6.72044 12.1963 6.63928 12.1909C6.55813 12.1855 6.43099 12.1612 6.25786 12.118C6.08474 12.0747 5.89809 12.0099 5.6979 11.9235C5.49772 11.837 5.30295 11.7344 5.11359 11.6155C4.92424 11.4966 4.78735 11.3978 4.70295 11.3189C4.61963 11.2411 4.51142 11.1309 4.37833 10.9882C4.24632 10.8445 4.13162 10.697 4.03424 10.5457C3.93685 10.3945 3.8438 10.2199 3.75508 10.0222L3.62035 9.72722L3.61223 9.70291L3.60412 9.67859L3.59925 9.66239L3.596 9.64618L3.62035 9.64942L3.6447 9.65428L3.82323 9.67859C3.94227 9.6948 4.12893 9.7002 4.3832 9.6948C4.63749 9.68941 4.81332 9.67859 4.9107 9.66239C5.00809 9.64618 5.0676 9.63537 5.08924 9.62997L5.1217 9.62187L5.16228 9.61376L5.20286 9.60566L5.2061 9.60079L5.21097 9.59755L5.21586 9.59431L5.21909 9.58945L5.18662 9.58134L5.15416 9.57324L5.1217 9.56514L5.08924 9.55703L5.05678 9.54893C5.03514 9.54353 4.99728 9.53272 4.94316 9.51651C4.88906 9.5003 4.74299 9.44087 4.50493 9.33822C4.26689 9.23557 4.07752 9.13561 3.93685 9.03836C3.79583 8.94083 3.66137 8.83417 3.53433 8.71906C3.40772 8.60236 3.26869 8.45215 3.11719 8.26846C2.96571 8.08477 2.83046 7.87136 2.71142 7.62823C2.5924 7.3851 2.50313 7.15279 2.44361 6.93127C2.38433 6.71105 2.34522 6.48591 2.32677 6.25862L2.29754 5.91824L2.31377 5.92149L2.33 5.92635L2.34623 5.93445L2.36246 5.94256L2.37869 5.95066L2.39492 5.95877L2.6465 6.07222C2.81423 6.14787 3.02252 6.2127 3.27139 6.26672C3.52027 6.32075 3.66904 6.35047 3.71773 6.35587L3.79077 6.36398H3.93685L3.93362 6.35911L3.92873 6.35587L3.92387 6.35263L3.92062 6.34777L3.91739 6.3429L3.9125 6.33966L3.90763 6.33642L3.90439 6.33156L3.88816 6.32345L3.87193 6.31535L3.8687 6.31049L3.86381 6.30725L3.85894 6.304L3.8557 6.29914L3.83947 6.29104L3.82323 6.28293L3.82 6.27807C3.81676 6.2759 3.77022 6.24133 3.6804 6.17434C3.59167 6.10626 3.49862 6.0182 3.40123 5.91014C3.30385 5.80208 3.20646 5.68862 3.10908 5.56976C3.01151 5.45063 2.92461 5.32318 2.84938 5.18887C2.77365 5.0538 2.69357 4.88198 2.60917 4.67344C2.52585 4.46597 2.46255 4.25688 2.41927 4.04617C2.376 3.83546 2.35165 3.62746 2.34623 3.42215C2.34082 3.21684 2.34623 3.04125 2.36246 2.89538C2.37869 2.7495 2.41115 2.58471 2.45984 2.40102C2.50854 2.21733 2.57888 2.02283 2.67084 1.81752L2.80881 1.50956L2.81692 1.48524L2.82504 1.46093L2.82992 1.45769L2.83315 1.45283L2.8364 1.44796L2.84127 1.44472L2.84615 1.44796L2.84938 1.45283L2.85263 1.45769L2.8575 1.46093L2.86238 1.46417L2.86561 1.46904L2.86886 1.4739L2.87373 1.47714L2.88185 1.49335L2.88996 1.50956L2.89485 1.5128L2.89808 1.51766L3.11719 1.76079C3.26327 1.92287 3.4364 2.10387 3.63658 2.30377C3.83677 2.50367 3.94768 2.6074 3.96931 2.61497C3.99096 2.62361 4.018 2.64846 4.05047 2.68953C4.08293 2.72951 4.19114 2.82514 4.37508 2.97642C4.55904 3.12769 4.7998 3.30329 5.09736 3.50319C5.39493 3.70309 5.72495 3.9003 6.08744 4.0948C6.44994 4.2893 6.83948 4.46488 7.25606 4.62157C7.67265 4.77826 7.96481 4.88091 8.13252 4.92953C8.30025 4.97816 8.58699 5.04028 8.99276 5.11593C9.39853 5.19157 9.70422 5.2402 9.9098 5.2618C10.1154 5.28341 10.2561 5.29584 10.3318 5.29908L10.4454 5.30232L10.4422 5.27801L10.4373 5.2537L10.4048 5.05109C10.3832 4.91603 10.3724 4.72693 10.3724 4.4838C10.3724 4.24067 10.3913 4.01646 10.4292 3.81115C10.4671 3.60584 10.5239 3.39784 10.5996 3.18713C10.6754 2.97642 10.7495 2.8073 10.822 2.6798C10.8956 2.55338 10.9919 2.40912 11.1109 2.24704C11.2299 2.08496 11.3841 1.91747 11.5735 1.74458C11.7628 1.57168 11.9792 1.4177 12.2227 1.28264C12.4662 1.14757 12.6907 1.04491 12.8963 0.974679C13.1019 0.904448 13.275 0.858514 13.4157 0.836908C13.5563 0.815302 13.6267 0.80287 13.6267 0.799628Z" fill="#064E3B"/>
</svg>
