<svg width="22" height="16" viewBox="0 0 22 16" fill="none" xmlns="http://www.w3.org/2000/svg">
<path d="M12.0379 15.0778L7.97568 15.0019C6.66044 14.9754 5.34191 15.0283 4.05246 14.7542C2.09089 14.3447 1.95193 12.3368 1.80652 10.6525C1.60615 8.28468 1.68372 5.87386 2.06183 3.52579C2.27528 2.20827 3.11532 1.4221 4.4144 1.33655C8.79975 1.02607 13.2143 1.06287 17.5899 1.20772C18.052 1.22099 18.5173 1.29357 18.973 1.37618C21.2223 1.7791 21.2771 4.0545 21.423 5.96995C21.5684 7.90518 21.507 9.85033 21.229 11.7724C21.0061 13.3638 20.5795 14.6983 18.7791 14.8272C16.5233 14.9956 14.3193 15.1312 12.0572 15.0881C12.0573 15.0778 12.0443 15.0778 12.0379 15.0778ZM9.6497 11.0488C11.3496 10.0514 13.0171 9.07065 14.7073 8.07993C13.0042 7.08251 11.3399 6.10172 9.6497 5.111V11.0488Z" fill="#064E3B"/>
</svg>
